<svg xmlns="http://www.w3.org/2000/svg" version="1.1" xmlns:xlink="http://www.w3.org/1999/xlink" xmlns:svgjs="http://svgjs.dev/svgjs" width="1500" height="515" viewBox="0 0 1500 515"><g transform="matrix(1,0,0,1,-0.9090909090909918,0.9026105031743441)"><svg viewBox="0 0 396 136" data-background-color="#ffffff" preserveAspectRatio="xMidYMid meet" height="515" width="1500" xmlns="http://www.w3.org/2000/svg" xmlns:xlink="http://www.w3.org/1999/xlink"><g id="tight-bounds" transform="matrix(1,0,0,1,0.2400000000000091,-0.2383592785081703)"><svg viewBox="0 0 395.52 136.47671855701634" height="136.47671855701634" width="395.52"><g><svg viewBox="0 0 395.52 136.47671855701634" height="136.47671855701634" width="395.52"><g><svg viewBox="0 0 395.52 136.47671855701634" height="136.47671855701634" width="395.52"><g id="textblocktransform"><svg viewBox="0 0 395.52 136.47671855701634" height="136.47671855701634" width="395.52" id="textblock"><g><rect width="106.79039999999999" height="8.765182883676118" y="123.92622809777491" fill="#7c4e29" data-fill-palette-color="tertiary"></rect><rect width="106.79039999999999" height="8.765182883676118" y="123.92622809777491" x="288.7296" fill="#7c4e29" data-fill-palette-color="tertiary"></rect></g><g><svg viewBox="0 0 395.52 97.1954155911203" height="97.1954155911203" width="395.52"><g transform="matrix(1,0,0,1,0,0)"><svg width="395.52" viewBox="2.22 -38.23 189.14000000000001 46.48" height="97.1954155911203" data-palette-color="#7c4e29"><path d="M4.32-1.76L4.32-1.76Q3.47-2.25 2.84-2.78 2.22-3.32 2.22-3.93L2.22-3.93Q2.22-5.1 3.22-5.1L3.22-5.1Q3.88-5.1 4.69-4.37 5.49-3.64 6.49-3.09 7.5-2.54 8.67-2.15L8.67-2.15Q11.08-1.34 13.13-1.34 15.19-1.34 16.3-1.61 17.41-1.88 18.16-2.34L18.16-2.34Q19.78-3.34 19.78-4.91L19.78-4.91Q19.78-6.35 18.38-7.81L18.38-7.81Q17.21-9.06 15.06-10.79L15.06-10.79 10.89-14.06Q4.61-18.9 3.49-22.9L3.49-22.9Q3.1-24.29 3.1-26 3.1-27.71 3.87-29.37 4.64-31.03 6.15-32.28L6.15-32.28Q9.4-34.99 14.99-34.99L14.99-34.99Q17.85-34.99 20.12-34.14 22.39-33.3 23.22-32.64 24.05-31.98 24.05-31.45L24.05-31.45Q24.05-30.32 23.12-30.32L23.12-30.32Q22.58-30.32 21.97-30.86 21.36-31.4 20.62-31.8 19.87-32.2 18.92-32.52L18.92-32.52Q16.87-33.2 14.89-33.2L14.89-33.2Q11.25-33.2 11.25-30.81L11.25-30.81Q11.25-29.81 11.91-28.96L11.91-28.96Q13.09-27.47 16.49-24.69 19.9-21.92 21.96-19.85 24.02-17.77 25.1-16.11L25.1-16.11Q26.81-13.5 26.81-10.68 26.81-7.86 25.82-5.9 24.83-3.93 23.05-2.51L23.05-2.51Q19.29 0.46 13.72 0.46 8.15 0.46 4.32-1.76ZM49.88 0.46L49.88 0.46Q46.48 0.46 43.31-1.07L43.31-1.07 43.31 7.81 33.27 7.81 33.27-26.07 43.31-26.07 43.31-24.73Q46.51-26.51 49.85-26.51 53.2-26.51 55.76-25.51 58.32-24.51 60.15-22.75L60.15-22.75Q63.94-19.04 63.94-13.26L63.94-13.26Q63.94-7.42 60.2-3.56L60.2-3.56Q56.35 0.46 49.88 0.46ZM49.8-24.73L49.8-24.73Q46.19-24.73 43.31-22.73L43.31-22.73 43.31-3.25Q46.6-1.34 50.49-1.34L50.49-1.34 51.12-1.34Q51.41-1.34 51.68-1.39L51.68-1.39 51.68-24.58Q50.75-24.73 49.8-24.73ZM70.19 0L70.19-34.55 80.68-34.55 80.68 0 70.19 0ZM93.79-30.35Q91.28-30.35 89.86-31.47 88.44-32.59 88.44-34.42L88.44-34.42Q88.44-35.96 90.01-37.06L90.01-37.06Q91.67-38.23 93.52-38.23 95.38-38.23 96.39-37.87 97.4-37.5 98.11-36.91L98.11-36.91Q99.53-35.72 99.53-34.13L99.53-34.13Q99.53-32.54 97.92-31.45L97.92-31.45Q96.31-30.35 93.79-30.35ZM88.66 0L88.66-26.07 99.16-26.07 99.16 0 88.66 0ZM117.18 0.46L117.18 0.46Q107.61 0.46 107.61-8.28L107.61-8.28 107.58-24.29 104.78-24.17Q103.46-24.17 103.46-25.17 103.46-26.17 104.87-26.17L104.87-26.17 107.22-26.07 107.58-26.07 107.58-29.86 118.06-34.55 118.06-26.07 121.33-26.07 123.65-26.17Q125.09-26.17 125.09-25.15L125.09-25.15Q125.09-24.68 124.68-24.43 124.28-24.17 123.77-24.17L123.77-24.17 120.74-24.29 118.06-24.29 118.06-1.34Q120.91-1.39 122.82-2.98L122.82-2.98Q123.72-3.66 124.1-4.74 124.48-5.81 124.78-6.12 125.09-6.42 125.5-6.42L125.5-6.42Q125.92-6.42 126.21-6.09 126.5-5.76 126.5-5.31 126.5-4.86 126.26-4.31 126.02-3.76 125.53-3.15L125.53-3.15Q124.43-1.78 122.99-0.98L122.99-0.98Q120.38 0.46 117.18 0.46ZM135.78-30.35Q133.26-30.35 131.85-31.47 130.43-32.59 130.43-34.42L130.43-34.42Q130.43-35.96 131.99-37.06L131.99-37.06Q133.65-38.23 135.51-38.23 137.37-38.23 138.38-37.87 139.39-37.5 140.1-36.91L140.1-36.91Q141.52-35.72 141.52-34.13L141.52-34.13Q141.52-32.54 139.9-31.45L139.9-31.45Q138.29-30.35 135.78-30.35ZM130.65 0L130.65-26.07 141.15-26.07 141.15 0 130.65 0ZM164.95-24.19L164.95-24.19 162.34-24.29 159.63-24.29 159.63 0 149.13 0 149.15-24.29 148.76-24.29 146.44-24.19Q145-24.19 145-25.18 145-26.17 146.32-26.17L146.32-26.17 149.23-26.07Q149.74-30.49 153.16-32.84L153.16-32.84Q156.28-34.99 161.34-34.99L161.34-34.99Q166.07-34.99 167.86-33.11L167.86-33.11Q168.34-32.59 168.34-32.13L168.34-32.13Q168.34-31.05 167.25-31.05L167.25-31.05Q166.71-31.05 166.2-31.42L166.2-31.42 165.32-32.03Q163.9-33.08 162.27-33.18L162.27-33.18Q161.83-33.2 161.35-33.2 160.87-33.2 160.46-33.15 160.04-33.11 159.63-33.06L159.63-33.06 159.63-26.07 161.75-26.07 165.02-26.17Q166.34-26.17 166.34-25.18 166.34-24.19 164.95-24.19ZM174.05 5.76L174.05 5.76Q175.54 5.3 176.13 4.57L176.13 4.57Q176.96 3.59 178.13 1.05L178.13 1.05 178.69-0.24 165.39-26.07 176.5-26.07 183.43-11.33 187.43-20.68Q188.53-23.24 188.87-24.58 189.22-25.93 189.55-26.22 189.88-26.51 190.35-26.51 190.83-26.51 191.1-26.22 191.36-25.93 191.36-25.63 191.36-25.34 191.3-25.01 191.24-24.68 191.06-24.13 190.88-23.58 190.53-22.75L190.53-22.75 180.4 0.73Q178.6 4.98 176.94 6.71L176.94 6.71Q175.52 8.25 174.07 8.25 172.61 8.25 172.61 7.24 172.61 6.23 174.05 5.76Z" opacity="1" transform="matrix(1,0,0,1,0,0)" fill="#7c4e29" class="wordmark-text-0" data-fill-palette-color="primary" id="text-0"></path></svg></g></svg></g><g transform="matrix(1,0,0,1,106.79039999999999,120.14092052220961)"><svg viewBox="0 0 181.9392 16.335798034806714" height="16.335798034806714" width="181.9392"><g transform="matrix(1,0,0,1,8,0)"><svg width="165.9392" viewBox="2.127906976744186 -37 477.3620930232558 47" height="16.335798034806714" data-palette-color="#7c4e29"><path d="M2.5-4.05L2.5-4.05Q2.1-4.65 2.13-5.23 2.15-5.8 2.75-6.15L2.75-6.15Q3.15-6.5 3.68-6.45 4.2-6.4 4.65-5.95L4.65-5.95Q6-4.2 7.93-3.13 9.85-2.05 12.5-2.05L12.5-2.05Q13.9-2.05 15.28-2.53 16.65-3 17.55-3.98 18.45-4.95 18.45-6.45L18.45-6.45Q18.45-8 17.55-8.95 16.65-9.9 15.23-10.45 13.8-11 12.2-11.4L12.2-11.4Q10.5-11.85 8.9-12.43 7.3-13 6.08-13.88 4.85-14.75 4.1-16 3.35-17.25 3.35-19.05L3.35-19.05Q3.35-21.15 4.5-22.75 5.65-24.35 7.63-25.25 9.6-26.15 12.1-26.15L12.1-26.15Q13.35-26.15 14.8-25.83 16.25-25.5 17.65-24.75 19.05-24 20.15-22.7L20.15-22.7Q20.6-22.25 20.6-21.68 20.6-21.1 20.1-20.65L20.1-20.65Q19.7-20.35 19.18-20.35 18.65-20.35 18.3-20.75L18.3-20.75Q17.1-22.1 15.45-22.8 13.8-23.5 11.9-23.5L11.9-23.5Q10.45-23.5 9.18-23.03 7.9-22.55 7.05-21.6 6.2-20.65 6.2-19.1L6.2-19.1Q6.3-17.65 7.23-16.75 8.15-15.85 9.68-15.25 11.2-14.65 13.1-14.15L13.1-14.15Q14.7-13.75 16.18-13.2 17.65-12.65 18.78-11.83 19.9-11 20.58-9.75 21.25-8.5 21.25-6.6L21.25-6.6Q21.25-4.4 20.03-2.8 18.8-1.2 16.75-0.35 14.7 0.5 12.2 0.5L12.2 0.5Q9.5 0.5 6.98-0.55 4.45-1.6 2.5-4.05ZM30.3-24.5L30.3-1.5Q30.3-0.9 29.85-0.45 29.4 0 28.8 0L28.8 0Q28.15 0 27.72-0.45 27.3-0.9 27.3-1.5L27.3-1.5 27.3-24.5Q27.3-25.1 27.72-25.55 28.15-26 28.8-26L28.8-26Q29.45-26 29.87-25.55 30.3-25.1 30.3-24.5L30.3-24.5ZM28.8-29.35L28.8-29.35Q27.75-29.35 27.22-29.83 26.7-30.3 26.7-31.2L26.7-31.2 26.7-31.7Q26.7-32.6 27.27-33.08 27.85-33.55 28.85-33.55L28.85-33.55Q29.8-33.55 30.32-33.08 30.85-32.6 30.85-31.7L30.85-31.7 30.85-31.2Q30.85-30.3 30.32-29.83 29.8-29.35 28.8-29.35ZM49.6-25.75L49.6-25.75Q52.7-25.75 54.9-24.13 57.1-22.5 57.9-19.3L57.9-19.3 57.2-19.1 57.5-20Q58.15-21.5 59.67-22.83 61.2-24.15 63.15-24.95 65.09-25.75 67.09-25.75L67.09-25.75Q70.25-25.75 72.17-24.4 74.09-23.05 74.97-20.78 75.84-18.5 75.84-15.65L75.84-15.65 75.84-1.5Q75.84-0.9 75.42-0.45 75 0 74.34 0L74.34 0Q73.7 0 73.27-0.45 72.84-0.9 72.84-1.5L72.84-1.5 72.84-15.5Q72.84-17.55 72.2-19.25 71.55-20.95 70.15-21.95 68.75-22.95 66.4-22.95L66.4-22.95Q64.34-22.95 62.47-21.95 60.6-20.95 59.42-19.25 58.25-17.55 58.25-15.5L58.25-15.5 58.25-1.5Q58.25-0.9 57.82-0.45 57.4 0 56.75 0L56.75 0Q56.1 0 55.67-0.45 55.25-0.9 55.25-1.5L55.25-1.5 55.25-15.65Q55.25-17.7 54.65-19.35 54.05-21 52.7-21.98 51.34-22.95 49.05-22.95L49.05-22.95Q47-22.95 45.17-21.98 43.35-21 42.22-19.35 41.1-17.7 41.1-15.65L41.1-15.65 41.1-1.5Q41.1-0.9 40.65-0.45 40.2 0 39.6 0L39.6 0Q38.9 0 38.5-0.45 38.1-0.9 38.1-1.5L38.1-1.5 38.1-23.9Q38.1-24.5 38.52-24.95 38.95-25.4 39.6-25.4L39.6-25.4Q40.25-25.4 40.67-24.95 41.1-24.5 41.1-23.9L41.1-23.9 41.1-19.25 39.75-17.4Q39.9-18.9 40.72-20.4 41.55-21.9 42.9-23.1 44.25-24.3 45.97-25.03 47.7-25.75 49.6-25.75ZM95.84-25.75L95.84-25.75Q99.24-25.75 101.87-24.08 104.49-22.4 106.04-19.48 107.59-16.55 107.59-12.75L107.59-12.75Q107.59-8.95 106.04-6 104.49-3.05 101.84-1.35 99.19 0.35 95.89 0.35L95.89 0.35Q94.14 0.35 92.57-0.18 90.99-0.7 89.69-1.6 88.39-2.5 87.39-3.73 86.39-4.95 85.79-6.4L85.79-6.4 86.69-7.05 86.69 8.5Q86.69 9.1 86.27 9.55 85.84 10 85.19 10L85.19 10Q84.54 10 84.12 9.55 83.69 9.1 83.69 8.5L83.69 8.5 83.69-24.1Q83.69-24.75 84.09-25.2 84.49-25.65 85.19-25.65L85.19-25.65Q85.84-25.65 86.27-25.2 86.69-24.75 86.69-24.1L86.69-24.1 86.69-18.7 85.99-19.1Q86.49-20.65 87.47-21.88 88.44-23.1 89.74-23.98 91.04-24.85 92.59-25.3 94.14-25.75 95.84-25.75ZM95.59-22.95L95.59-22.95Q92.89-22.95 90.84-21.63 88.79-20.3 87.62-18.03 86.44-15.75 86.44-12.75L86.44-12.75Q86.44-9.8 87.62-7.45 88.79-5.1 90.84-3.78 92.89-2.45 95.59-2.45L95.59-2.45Q98.24-2.45 100.27-3.78 102.29-5.1 103.49-7.45 104.69-9.8 104.69-12.75L104.69-12.75Q104.69-15.7 103.49-18 102.29-20.3 100.27-21.63 98.24-22.95 95.59-22.95ZM117.09-35.5L117.09-1.5Q117.09-0.9 116.64-0.45 116.19 0 115.59 0L115.59 0Q114.94 0 114.52-0.45 114.09-0.9 114.09-1.5L114.09-1.5 114.09-35.5Q114.09-36.1 114.54-36.55 114.99-37 115.59-37L115.59-37Q116.24-37 116.67-36.55 117.09-36.1 117.09-35.5L117.09-35.5ZM128.19-24.5L128.19-1.5Q128.19-0.9 127.74-0.45 127.29 0 126.69 0L126.69 0Q126.04 0 125.61-0.45 125.19-0.9 125.19-1.5L125.19-1.5 125.19-24.5Q125.19-25.1 125.61-25.55 126.04-26 126.69-26L126.69-26Q127.34-26 127.76-25.55 128.19-25.1 128.19-24.5L128.19-24.5ZM126.69-29.35L126.69-29.35Q125.64-29.35 125.11-29.83 124.59-30.3 124.59-31.2L124.59-31.2 124.59-31.7Q124.59-32.6 125.16-33.08 125.74-33.55 126.74-33.55L126.74-33.55Q127.69-33.55 128.21-33.08 128.74-32.6 128.74-31.7L128.74-31.7 128.74-31.2Q128.74-30.3 128.21-29.83 127.69-29.35 126.69-29.35ZM145.23-36.8L145.23-36.8Q145.98-36.8 146.86-36.65 147.73-36.5 148.38-36.13 149.03-35.75 149.03-35L149.03-35Q149.03-34.45 148.63-34.02 148.23-33.6 147.73-33.6L147.73-33.6Q147.23-33.6 146.48-33.88 145.73-34.15 144.88-34.15L144.88-34.15Q143.84-34.15 143.09-33.68 142.34-33.2 141.94-32.33 141.53-31.45 141.53-30.2L141.53-30.2 141.53-1.5Q141.53-0.9 141.11-0.45 140.69 0 140.03 0L140.03 0Q139.38 0 138.96-0.45 138.53-0.9 138.53-1.5L138.53-1.5 138.53-30.2Q138.53-33.4 140.41-35.1 142.28-36.8 145.23-36.8ZM134.88-25.05L147.13-25.05Q147.73-25.05 148.13-24.65 148.53-24.25 148.53-23.65L148.53-23.65Q148.53-23.05 148.13-22.65 147.73-22.25 147.13-22.25L147.13-22.25 134.88-22.25Q134.34-22.25 133.91-22.68 133.48-23.1 133.48-23.65L133.48-23.65Q133.48-24.3 133.91-24.68 134.34-25.05 134.88-25.05L134.88-25.05ZM172.68-26L172.68-26Q173.33-26 173.76-25.55 174.18-25.1 174.18-24.5L174.18-24.5 174.18-2.45Q174.18 1.6 172.58 4.38 170.98 7.15 168.28 8.58 165.58 10 162.13 10L162.13 10Q159.98 10 158.16 9.53 156.33 9.05 155.18 8.3L155.18 8.3Q154.58 7.95 154.28 7.45 153.98 6.95 154.23 6.4L154.23 6.4Q154.48 5.7 155.01 5.48 155.53 5.25 156.08 5.5L156.08 5.5Q156.93 5.95 158.53 6.6 160.13 7.25 162.18 7.25L162.18 7.25Q164.93 7.25 166.96 6.1 168.98 4.95 170.08 2.78 171.18 0.6 171.18-2.4L171.18-2.4 171.18-6 171.53-4.8Q170.78-3.25 169.41-2.05 168.03-0.85 166.26-0.18 164.48 0.5 162.48 0.5L162.48 0.5Q159.48 0.5 157.51-0.73 155.53-1.95 154.58-4.1 153.63-6.25 153.63-9.15L153.63-9.15 153.63-24.5Q153.63-25.1 154.03-25.55 154.43-26 155.13-26L155.13-26Q155.78-26 156.21-25.55 156.63-25.1 156.63-24.5L156.63-24.5 156.63-9.6Q156.63-6.1 158.16-4.2 159.68-2.3 163.13-2.3L163.13-2.3Q165.28-2.3 167.08-3.33 168.88-4.35 170.03-6.03 171.18-7.7 171.18-9.6L171.18-9.6 171.18-24.5Q171.18-25.1 171.61-25.55 172.03-26 172.68-26ZM214.73-26L214.73-26Q215.38-26 215.8-25.55 216.23-25.1 216.23-24.5L216.23-24.5 216.23-2.45Q216.23 1.6 214.63 4.38 213.03 7.15 210.33 8.58 207.63 10 204.18 10L204.18 10Q202.03 10 200.2 9.53 198.38 9.05 197.23 8.3L197.23 8.3Q196.63 7.95 196.33 7.45 196.03 6.95 196.28 6.4L196.28 6.4Q196.53 5.7 197.05 5.48 197.58 5.25 198.13 5.5L198.13 5.5Q198.98 5.95 200.58 6.6 202.18 7.25 204.23 7.25L204.23 7.25Q206.98 7.25 209 6.1 211.03 4.95 212.13 2.78 213.23 0.6 213.23-2.4L213.23-2.4 213.23-6 213.58-4.8Q212.83-3.25 211.45-2.05 210.08-0.85 208.3-0.18 206.53 0.5 204.53 0.5L204.53 0.5Q201.53 0.5 199.55-0.73 197.58-1.95 196.63-4.1 195.68-6.25 195.68-9.15L195.68-9.15 195.68-24.5Q195.68-25.1 196.08-25.55 196.48-26 197.18-26L197.18-26Q197.83-26 198.25-25.55 198.68-25.1 198.68-24.5L198.68-24.5 198.68-9.6Q198.68-6.1 200.2-4.2 201.73-2.3 205.18-2.3L205.18-2.3Q207.33-2.3 209.13-3.33 210.93-4.35 212.08-6.03 213.23-7.7 213.23-9.6L213.23-9.6 213.23-24.5Q213.23-25.1 213.65-25.55 214.08-26 214.73-26ZM247.43-12.8L247.43-12.8Q247.43-9 245.75-5.98 244.08-2.95 241.23-1.23 238.38 0.5 234.78 0.5L234.78 0.5Q231.23 0.5 228.35-1.23 225.48-2.95 223.8-5.98 222.13-9 222.13-12.8L222.13-12.8Q222.13-16.65 223.8-19.65 225.48-22.65 228.35-24.4 231.23-26.15 234.78-26.15L234.78-26.15Q238.38-26.15 241.23-24.4 244.08-22.65 245.75-19.65 247.43-16.65 247.43-12.8ZM244.43-12.8L244.43-12.8Q244.43-15.85 243.18-18.23 241.93-20.6 239.75-21.98 237.58-23.35 234.78-23.35L234.78-23.35Q232.03-23.35 229.85-21.98 227.68-20.6 226.4-18.23 225.13-15.85 225.13-12.8L225.13-12.8Q225.13-9.75 226.4-7.4 227.68-5.05 229.85-3.68 232.03-2.3 234.78-2.3L234.78-2.3Q237.58-2.3 239.75-3.68 241.93-5.05 243.18-7.4 244.43-9.75 244.43-12.8ZM272.67-25.4L272.67-25.4Q273.32-25.4 273.75-24.95 274.17-24.5 274.17-23.9L274.17-23.9 274.17-9.8Q274.17-4.85 271.37-2.25 268.57 0.35 263.82 0.35L263.82 0.35Q259.12 0.35 256.35-2.25 253.57-4.85 253.57-9.8L253.57-9.8 253.57-23.9Q253.57-24.5 254-24.95 254.42-25.4 255.07-25.4L255.07-25.4Q255.72-25.4 256.15-24.95 256.57-24.5 256.57-23.9L256.57-23.9 256.57-9.8Q256.57-6.2 258.5-4.33 260.42-2.45 263.82-2.45L263.82-2.45Q267.27-2.45 269.22-4.33 271.17-6.2 271.17-9.8L271.17-9.8 271.17-23.9Q271.17-24.5 271.57-24.95 271.97-25.4 272.67-25.4ZM283.52 0L283.52 0Q282.82 0 282.42-0.45 282.02-0.9 282.02-1.5L282.02-1.5 282.02-23.9Q282.02-24.5 282.45-24.95 282.87-25.4 283.52-25.4L283.52-25.4Q284.17-25.4 284.6-24.95 285.02-24.5 285.02-23.9L285.02-23.9 285.02-16.4 284.27-16.25Q284.42-18 285.15-19.73 285.87-21.45 287.12-22.9 288.37-24.35 290.1-25.25 291.82-26.15 293.97-26.15L293.97-26.15Q294.87-26.15 295.72-25.78 296.57-25.4 296.57-24.55L296.57-24.55Q296.57-23.8 296.17-23.4 295.77-23 295.22-23L295.22-23Q294.77-23 294.25-23.25 293.72-23.5 292.87-23.5L292.87-23.5Q291.47-23.5 290.07-22.68 288.67-21.85 287.52-20.45 286.37-19.05 285.7-17.32 285.02-15.6 285.02-13.85L285.02-13.85 285.02-1.5Q285.02-0.9 284.57-0.45 284.12 0 283.52 0ZM327.07-26.15L327.07-26.15Q330.47-26.15 333.09-24.45 335.72-22.75 337.27-19.78 338.82-16.8 338.82-12.9L338.82-12.9Q338.82-9.1 337.27-6.05 335.72-3 333.07-1.25 330.42 0.5 327.12 0.5L327.12 0.5Q325.37 0.5 323.79-0.05 322.22-0.6 320.92-1.53 319.62-2.45 318.62-3.7 317.62-4.95 317.02-6.4L317.02-6.4 317.92-7.05 317.92-1.4Q317.92-0.75 317.49-0.33 317.07 0.1 316.42 0.1L316.42 0.1Q315.77 0.1 315.34-0.33 314.92-0.75 314.92-1.4L314.92-1.4 314.92-35.45Q314.92-36.1 315.32-36.52 315.72-36.95 316.42-36.95L316.42-36.95Q317.07-36.95 317.49-36.52 317.92-36.1 317.92-35.45L317.92-35.45 317.92-18.7 317.22-19.1Q317.72-20.65 318.69-21.93 319.67-23.2 320.97-24.15 322.27-25.1 323.82-25.63 325.37-26.15 327.07-26.15ZM326.82-23.35L326.82-23.35Q324.12-23.35 322.07-22 320.02-20.65 318.84-18.3 317.67-15.95 317.67-12.9L317.67-12.9Q317.67-9.9 318.84-7.48 320.02-5.05 322.07-3.68 324.12-2.3 326.82-2.3L326.82-2.3Q329.47-2.3 331.49-3.7 333.52-5.1 334.72-7.53 335.92-9.95 335.92-12.9L335.92-12.9Q335.92-15.95 334.72-18.3 333.52-20.65 331.49-22 329.47-23.35 326.82-23.35ZM347.91-24.5L347.91-1.5Q347.91-0.9 347.46-0.45 347.01 0 346.41 0L346.41 0Q345.76 0 345.34-0.45 344.91-0.9 344.91-1.5L344.91-1.5 344.91-24.5Q344.91-25.1 345.34-25.55 345.76-26 346.41-26L346.41-26Q347.06-26 347.49-25.55 347.91-25.1 347.91-24.5L347.91-24.5ZM346.41-29.35L346.41-29.35Q345.36-29.35 344.84-29.83 344.31-30.3 344.31-31.2L344.31-31.2 344.31-31.7Q344.31-32.6 344.89-33.08 345.46-33.55 346.46-33.55L346.46-33.55Q347.41-33.55 347.94-33.08 348.46-32.6 348.46-31.7L348.46-31.7 348.46-31.2Q348.46-30.3 347.94-29.83 347.41-29.35 346.41-29.35ZM359.01-35.5L359.01-1.5Q359.01-0.9 358.56-0.45 358.11 0 357.51 0L357.51 0Q356.86 0 356.44-0.45 356.01-0.9 356.01-1.5L356.01-1.5 356.01-35.5Q356.01-36.1 356.46-36.55 356.91-37 357.51-37L357.51-37Q358.16-37 358.59-36.55 359.01-36.1 359.01-35.5L359.01-35.5ZM370.51-35.5L370.51-1.5Q370.51-0.9 370.06-0.45 369.61 0 369.01 0L369.01 0Q368.36 0 367.93-0.45 367.51-0.9 367.51-1.5L367.51-1.5 367.51-35.5Q367.51-36.1 367.96-36.55 368.41-37 369.01-37L369.01-37Q369.66-37 370.08-36.55 370.51-36.1 370.51-35.5L370.51-35.5ZM390.9-4.05L390.9-4.05Q390.5-4.65 390.53-5.23 390.55-5.8 391.15-6.15L391.15-6.15Q391.55-6.5 392.08-6.45 392.6-6.4 393.05-5.95L393.05-5.95Q394.4-4.2 396.33-3.13 398.25-2.05 400.9-2.05L400.9-2.05Q402.3-2.05 403.68-2.53 405.05-3 405.95-3.98 406.85-4.95 406.85-6.45L406.85-6.45Q406.85-8 405.95-8.95 405.05-9.9 403.63-10.45 402.2-11 400.6-11.4L400.6-11.4Q398.9-11.85 397.3-12.43 395.7-13 394.48-13.88 393.25-14.75 392.5-16 391.75-17.25 391.75-19.05L391.75-19.05Q391.75-21.15 392.9-22.75 394.05-24.35 396.03-25.25 398-26.15 400.5-26.15L400.5-26.15Q401.75-26.15 403.2-25.83 404.65-25.5 406.05-24.75 407.45-24 408.55-22.7L408.55-22.7Q409-22.25 409-21.68 409-21.1 408.5-20.65L408.5-20.65Q408.1-20.35 407.58-20.35 407.05-20.35 406.7-20.75L406.7-20.75Q405.5-22.1 403.85-22.8 402.2-23.5 400.3-23.5L400.3-23.5Q398.85-23.5 397.58-23.03 396.3-22.55 395.45-21.6 394.6-20.65 394.6-19.1L394.6-19.1Q394.7-17.65 395.63-16.75 396.55-15.85 398.08-15.25 399.6-14.65 401.5-14.15L401.5-14.15Q403.1-13.75 404.58-13.2 406.05-12.65 407.18-11.83 408.3-11 408.98-9.75 409.65-8.5 409.65-6.6L409.65-6.6Q409.65-4.4 408.43-2.8 407.2-1.2 405.15-0.35 403.1 0.5 400.6 0.5L400.6 0.5Q397.9 0.5 395.38-0.55 392.85-1.6 390.9-4.05ZM427.95-25.75L427.95-25.75Q431.35-25.75 433.98-24.08 436.6-22.4 438.15-19.48 439.7-16.55 439.7-12.75L439.7-12.75Q439.7-8.95 438.15-6 436.6-3.05 433.95-1.35 431.3 0.35 428 0.35L428 0.35Q426.25 0.35 424.68-0.18 423.1-0.7 421.8-1.6 420.5-2.5 419.5-3.73 418.5-4.95 417.9-6.4L417.9-6.4 418.8-7.05 418.8 8.5Q418.8 9.1 418.38 9.55 417.95 10 417.3 10L417.3 10Q416.65 10 416.23 9.55 415.8 9.1 415.8 8.5L415.8 8.5 415.8-24.1Q415.8-24.75 416.2-25.2 416.6-25.65 417.3-25.65L417.3-25.65Q417.95-25.65 418.38-25.2 418.8-24.75 418.8-24.1L418.8-24.1 418.8-18.7 418.1-19.1Q418.6-20.65 419.58-21.88 420.55-23.1 421.85-23.98 423.15-24.85 424.7-25.3 426.25-25.75 427.95-25.75ZM427.7-22.95L427.7-22.95Q425-22.95 422.95-21.63 420.9-20.3 419.73-18.03 418.55-15.75 418.55-12.75L418.55-12.75Q418.55-9.8 419.73-7.45 420.9-5.1 422.95-3.78 425-2.45 427.7-2.45L427.7-2.45Q430.35-2.45 432.38-3.78 434.4-5.1 435.6-7.45 436.8-9.8 436.8-12.75L436.8-12.75Q436.8-15.7 435.6-18 434.4-20.3 432.38-21.63 430.35-22.95 427.7-22.95ZM449.2-35.5L449.2-1.5Q449.2-0.9 448.75-0.45 448.3 0 447.7 0L447.7 0Q447.05 0 446.62-0.45 446.2-0.9 446.2-1.5L446.2-1.5 446.2-35.5Q446.2-36.1 446.65-36.55 447.1-37 447.7-37L447.7-37Q448.35-37 448.77-36.55 449.2-36.1 449.2-35.5L449.2-35.5ZM460.3-24.5L460.3-1.5Q460.3-0.9 459.85-0.45 459.4 0 458.8 0L458.8 0Q458.15 0 457.72-0.45 457.3-0.9 457.3-1.5L457.3-1.5 457.3-24.5Q457.3-25.1 457.72-25.55 458.15-26 458.8-26L458.8-26Q459.45-26 459.87-25.55 460.3-25.1 460.3-24.5L460.3-24.5ZM458.8-29.35L458.8-29.35Q457.75-29.35 457.22-29.83 456.7-30.3 456.7-31.2L456.7-31.2 456.7-31.7Q456.7-32.6 457.27-33.08 457.85-33.55 458.85-33.55L458.85-33.55Q459.8-33.55 460.32-33.08 460.85-32.6 460.85-31.7L460.85-31.7 460.85-31.2Q460.85-30.3 460.32-29.83 459.8-29.35 458.8-29.35ZM466.44-25.45L466.44-25.45 478.09-25.45Q478.69-25.45 479.09-25.03 479.49-24.6 479.49-24L479.49-24Q479.49-23.45 479.09-23.05 478.69-22.65 478.09-22.65L478.09-22.65 466.44-22.65Q465.84-22.65 465.42-23.08 464.99-23.5 464.99-24.05L464.99-24.05Q464.99-24.65 465.42-25.05 465.84-25.45 466.44-25.45ZM471.59-32.5L471.59-32.5Q472.24-32.5 472.67-32.05 473.09-31.6 473.09-31L473.09-31 473.09-5.9Q473.09-4.5 473.47-3.8 473.84-3.1 474.44-2.88 475.04-2.65 475.64-2.65L475.64-2.65Q476.04-2.65 476.37-2.78 476.69-2.9 477.09-2.9L477.09-2.9Q477.54-2.9 477.87-2.55 478.19-2.2 478.19-1.65L478.19-1.65Q478.19-0.95 477.39-0.48 476.59 0 475.49 0L475.49 0Q475.04 0 474.14-0.08 473.24-0.15 472.29-0.63 471.34-1.1 470.72-2.3 470.09-3.5 470.09-5.75L470.09-5.75 470.09-31Q470.09-31.6 470.52-32.05 470.94-32.5 471.59-32.5Z" opacity="1" transform="matrix(1,0,0,1,0,0)" fill="#7c4e29" class="slogan-text-1" data-fill-palette-color="secondary" id="text-1"></path></svg></g></svg></g></svg></g></svg></g></svg></g><defs></defs></svg><rect width="395.52" height="136.47671855701634" fill="none" stroke="none" visibility="hidden"></rect></g></svg></g></svg>